<?xml version="1.0" standalone="no"?>
<!DOCTYPE svg PUBLIC "-//W3C//DTD SVG 20010904//EN"
 "http://www.w3.org/TR/2001/REC-SVG-20010904/DTD/svg10.dtd">
<svg version="1.0" xmlns="http://www.w3.org/2000/svg"
 width="400.000000pt" height="400.000000pt" viewBox="0 0 400.000000 400.000000"
 preserveAspectRatio="xMidYMid meet">
<metadata>
Created by potrace 1.14, written by Peter Selinger 2001-2017
</metadata>
<g transform="translate(0.000000,400.000000) scale(0.100000,-0.100000)"
fill="#000000" stroke="none">
<path d="M0 3835 l0 -165 24 0 c27 0 56 -24 56 -45 0 -21 -29 -45 -56 -45
l-24 0 0 -1165 0 -1165 21 0 c31 0 59 -18 59 -38 0 -26 -20 -42 -52 -42 l-28
0 0 -210 c0 -206 0 -210 21 -210 31 0 59 -18 59 -38 0 -26 -20 -42 -52 -42
l-28 0 0 -335 0 -335 2000 0 2000 0 0 1540 0 1540 -24 0 c-27 0 -56 24 -56 45
0 21 29 45 56 45 l24 0 0 415 0 415 -415 0 -415 0 0 -24 c0 -27 -24 -56 -45
-56 -21 0 -45 29 -45 56 l0 24 -1375 0 -1375 0 0 -28 c0 -32 -16 -52 -42 -52
-20 0 -38 28 -38 59 0 20 -5 21 -125 21 l-125 0 0 -165z m161 54 c14 -27 -23
-64 -50 -50 -28 16 -33 39 -11 61 22 22 45 17 61 -11z m1993 -158 c18 -20 13
-46 -11 -55 -22 -9 -50 2 -57 21 -7 17 20 53 39 53 7 0 19 -8 29 -19z m1335
-7 c12 -15 21 -32 21 -39 0 -7 13 -15 29 -18 44 -9 54 -66 13 -82 -18 -7 -62
34 -62 58 0 7 -15 19 -33 27 -37 17 -47 48 -21 67 25 18 30 17 53 -13z m-1499
-164 c6 -12 10 -42 8 -68 -3 -46 -3 -47 -38 -47 l-35 0 -3 53 c-2 31 2 60 9
68 17 20 47 17 59 -6z m1494 -79 c33 -36 -18 -83 -52 -49 -17 17 -15 45 6 57
24 14 26 14 46 -8z m-2573 -92 c14 -27 -23 -64 -50 -50 -28 16 -33 39 -11 61
22 22 45 17 61 -11z m2739 -239 c36 -36 2 -70 -71 -70 -41 0 -79 21 -79 43 0
46 111 66 150 27z m10 -261 c6 -10 10 -56 10 -103 0 -86 -12 -116 -45 -116
-34 0 -45 30 -45 121 0 75 3 92 20 109 22 22 45 18 60 -11z m-2599 -149 c21
-12 25 -40 7 -58 -18 -18 -46 -14 -58 9 -9 16 -8 25 6 40 20 22 20 22 45 9z
m2250 0 c21 -12 25 -40 7 -58 -18 -18 -46 -14 -58 9 -9 16 -8 25 6 40 20 22
20 22 45 9z m-2577 -259 c33 -36 -18 -83 -52 -49 -17 17 -15 45 6 57 24 14 26
14 46 -8z m2670 -167 c9 -8 16 -24 16 -35 0 -10 6 -19 14 -19 8 0 27 -10 42
-23 23 -20 25 -26 15 -46 -17 -32 -52 -24 -71 16 -8 18 -20 33 -26 33 -15 0
-64 39 -64 50 0 13 30 40 45 40 7 0 21 -7 29 -16z m-2500 -83 c18 -20 13 -46
-11 -55 -22 -9 -50 2 -57 21 -7 17 20 53 39 53 7 0 19 -8 29 -19z m1830 0 c14
-15 15 -24 6 -40 -13 -25 -45 -28 -54 -5 -10 26 -7 52 7 57 20 9 23 8 41 -12z
m1000 0 c33 -36 -18 -83 -52 -49 -17 17 -15 45 6 57 24 14 26 14 46 -8z
m-2743 -172 c9 -18 7 -25 -9 -41 -16 -16 -23 -18 -41 -9 -23 13 -28 40 -9 59
19 19 46 14 59 -9z m2070 -69 c21 -12 25 -40 7 -58 -18 -18 -46 -14 -58 9 -9
16 -8 25 6 40 20 22 20 22 45 9z m750 0 c21 -12 25 -40 7 -58 -18 -18 -46 -14
-58 9 -9 16 -8 25 6 40 20 22 20 22 45 9z m-579 -87 c10 -9 18 -21 18 -26 0
-13 -30 -47 -41 -47 -13 0 -39 30 -39 45 0 14 26 45 37 45 4 0 15 -7 25 -17z
m-241 -94 c9 -18 7 -25 -9 -41 -16 -16 -23 -18 -41 -9 -23 13 -28 40 -9 59 19
19 46 14 59 -9z m241 -156 c10 -9 18 -21 18 -26 0 -13 -30 -47 -41 -47 -13 0
-39 30 -39 45 0 14 26 45 37 45 4 0 15 -7 25 -17z m422 -89 c9 -8 16 -18 16
-21 0 -11 -33 -43 -43 -43 -13 0 -47 30 -47 41 0 13 30 39 45 39 7 0 21 -7 29
-16z m-2593 -74 c21 -12 25 -40 7 -58 -18 -18 -46 -14 -58 9 -9 16 -8 25 6 40
20 22 20 22 45 9z m2253 -86 c9 -8 16 -22 16 -29 0 -14 -26 -45 -37 -45 -11 0
-43 33 -43 43 0 13 30 47 41 47 4 0 15 -7 23 -16z m-246 -86 c30 -30 -11 -85
-44 -57 -14 12 -19 51 -7 62 10 11 38 8 51 -5z m-2016 -194 c-5 -49 -7 -51
-32 -29 -24 22 -25 33 -3 57 25 27 38 16 35 -28z m2609 15 c7 -14 5 -23 -11
-39 -16 -16 -25 -18 -39 -11 -28 16 -33 39 -11 61 22 22 45 17 61 -11z m-257
-75 c20 -19 20 -23 -1 -46 -12 -13 -30 -18 -68 -18 -44 0 -55 4 -68 23 -10 16
-12 28 -5 40 12 23 119 24 142 1z m-3170 -333 c33 -36 -18 -83 -52 -49 -17 17
-15 45 6 57 24 14 26 14 46 -8z m327 9 c21 -12 25 -40 7 -58 -18 -18 -46 -14
-58 9 -9 16 -8 25 6 40 20 22 20 22 45 9z m-407 -509 c18 -20 13 -46 -11 -55
-22 -9 -50 2 -57 21 -7 17 20 53 39 53 7 0 19 -8 29 -19z"/>
</g>
</svg>
